<mxfile host="app.diagrams.net" modified="2023-07-23T19:31:32.259Z" agent="Mozilla/5.0 (Windows NT 10.0; Win64; x64) AppleWebKit/537.36 (KHTML, like Gecko) Chrome/113.0.0.0 Safari/537.36 OPR/99.0.0.0" etag="swADWTAGa51QHGu3HJwl" version="21.6.5" type="device">
  <diagram name="Page-1" id="x5GNLbjLhIAQJrSCik24">
    <mxGraphModel dx="840" dy="454" grid="1" gridSize="10" guides="1" tooltips="1" connect="1" arrows="1" fold="1" page="1" pageScale="1" pageWidth="850" pageHeight="1100" math="0" shadow="0">
      <root>
        <mxCell id="0" />
        <mxCell id="1" parent="0" />
        <mxCell id="C3whG2LWtcC-ZwPrGYpv-3" value="" style="edgeStyle=orthogonalEdgeStyle;rounded=0;orthogonalLoop=1;jettySize=auto;html=1;" edge="1" parent="1" source="d35V8mpCLJeYDRfa0QBV-1" target="d35V8mpCLJeYDRfa0QBV-5">
          <mxGeometry relative="1" as="geometry" />
        </mxCell>
        <mxCell id="d35V8mpCLJeYDRfa0QBV-1" value="&lt;font style=&quot;font-size: 16px;&quot;&gt;Start&lt;/font&gt;" style="ellipse;whiteSpace=wrap;html=1;" parent="1" vertex="1">
          <mxGeometry x="310" width="120" height="70" as="geometry" />
        </mxCell>
        <mxCell id="C3whG2LWtcC-ZwPrGYpv-4" value="" style="edgeStyle=orthogonalEdgeStyle;rounded=0;orthogonalLoop=1;jettySize=auto;html=1;" edge="1" parent="1" source="d35V8mpCLJeYDRfa0QBV-5" target="d35V8mpCLJeYDRfa0QBV-6">
          <mxGeometry relative="1" as="geometry" />
        </mxCell>
        <mxCell id="d35V8mpCLJeYDRfa0QBV-5" value="&lt;font style=&quot;font-size: 16px;&quot;&gt;Receive Application&lt;/font&gt;" style="rounded=1;whiteSpace=wrap;html=1;" parent="1" vertex="1">
          <mxGeometry x="229.99" y="90" width="280" height="60" as="geometry" />
        </mxCell>
        <mxCell id="d35V8mpCLJeYDRfa0QBV-10" value="" style="edgeStyle=orthogonalEdgeStyle;rounded=0;orthogonalLoop=1;jettySize=auto;html=1;" parent="1" source="d35V8mpCLJeYDRfa0QBV-6" target="d35V8mpCLJeYDRfa0QBV-7" edge="1">
          <mxGeometry relative="1" as="geometry" />
        </mxCell>
        <mxCell id="d35V8mpCLJeYDRfa0QBV-14" value="" style="edgeStyle=orthogonalEdgeStyle;rounded=0;orthogonalLoop=1;jettySize=auto;html=1;" parent="1" source="d35V8mpCLJeYDRfa0QBV-6" target="d35V8mpCLJeYDRfa0QBV-12" edge="1">
          <mxGeometry relative="1" as="geometry" />
        </mxCell>
        <mxCell id="d35V8mpCLJeYDRfa0QBV-6" value="&lt;font style=&quot;font-size: 16px;&quot;&gt;Check&amp;nbsp; Eligibility criteria.&lt;/font&gt;" style="rhombus;whiteSpace=wrap;html=1;" parent="1" vertex="1">
          <mxGeometry x="262.49" y="180" width="215" height="120" as="geometry" />
        </mxCell>
        <mxCell id="d35V8mpCLJeYDRfa0QBV-11" value="" style="edgeStyle=orthogonalEdgeStyle;rounded=0;orthogonalLoop=1;jettySize=auto;html=1;" parent="1" source="d35V8mpCLJeYDRfa0QBV-7" target="d35V8mpCLJeYDRfa0QBV-9" edge="1">
          <mxGeometry relative="1" as="geometry" />
        </mxCell>
        <mxCell id="d35V8mpCLJeYDRfa0QBV-7" value="&lt;font style=&quot;font-size: 16px;&quot;&gt;Entrance Test.&lt;/font&gt;" style="rounded=1;whiteSpace=wrap;html=1;" parent="1" vertex="1">
          <mxGeometry x="310" y="320" width="120" height="60" as="geometry" />
        </mxCell>
        <mxCell id="d35V8mpCLJeYDRfa0QBV-15" value="" style="edgeStyle=orthogonalEdgeStyle;rounded=0;orthogonalLoop=1;jettySize=auto;html=1;" parent="1" source="d35V8mpCLJeYDRfa0QBV-9" target="d35V8mpCLJeYDRfa0QBV-13" edge="1">
          <mxGeometry relative="1" as="geometry" />
        </mxCell>
        <mxCell id="d35V8mpCLJeYDRfa0QBV-17" value="" style="edgeStyle=orthogonalEdgeStyle;rounded=0;orthogonalLoop=1;jettySize=auto;html=1;" parent="1" source="d35V8mpCLJeYDRfa0QBV-9" target="d35V8mpCLJeYDRfa0QBV-16" edge="1">
          <mxGeometry relative="1" as="geometry" />
        </mxCell>
        <mxCell id="d35V8mpCLJeYDRfa0QBV-9" value="&lt;font style=&quot;font-size: 16px;&quot;&gt;Entrance Result&lt;/font&gt;" style="rhombus;whiteSpace=wrap;html=1;" parent="1" vertex="1">
          <mxGeometry x="275" y="410" width="190" height="120" as="geometry" />
        </mxCell>
        <mxCell id="d35V8mpCLJeYDRfa0QBV-12" value="&lt;font style=&quot;font-size: 16px;&quot;&gt;Application Rejected.&lt;/font&gt;" style="rounded=1;whiteSpace=wrap;html=1;" parent="1" vertex="1">
          <mxGeometry x="580" y="210" width="180" height="60" as="geometry" />
        </mxCell>
        <mxCell id="d35V8mpCLJeYDRfa0QBV-13" value="&lt;font style=&quot;font-size: 16px;&quot;&gt;Failed&lt;/font&gt;" style="rounded=1;whiteSpace=wrap;html=1;" parent="1" vertex="1">
          <mxGeometry x="580" y="440" width="180" height="60" as="geometry" />
        </mxCell>
        <mxCell id="d35V8mpCLJeYDRfa0QBV-19" value="" style="edgeStyle=orthogonalEdgeStyle;rounded=0;orthogonalLoop=1;jettySize=auto;html=1;" parent="1" source="d35V8mpCLJeYDRfa0QBV-16" target="d35V8mpCLJeYDRfa0QBV-18" edge="1">
          <mxGeometry relative="1" as="geometry" />
        </mxCell>
        <mxCell id="d35V8mpCLJeYDRfa0QBV-16" value="&lt;font style=&quot;font-size: 16px;&quot;&gt;&lt;font style=&quot;font-size: 16px;&quot;&gt;Passed&lt;/font&gt;, Merit List.&lt;/font&gt;" style="rounded=1;whiteSpace=wrap;html=1;" parent="1" vertex="1">
          <mxGeometry x="295" y="550" width="150" height="60" as="geometry" />
        </mxCell>
        <mxCell id="d35V8mpCLJeYDRfa0QBV-21" value="" style="edgeStyle=orthogonalEdgeStyle;rounded=0;orthogonalLoop=1;jettySize=auto;html=1;" parent="1" source="d35V8mpCLJeYDRfa0QBV-18" target="d35V8mpCLJeYDRfa0QBV-20" edge="1">
          <mxGeometry relative="1" as="geometry" />
        </mxCell>
        <mxCell id="d35V8mpCLJeYDRfa0QBV-23" value="" style="edgeStyle=orthogonalEdgeStyle;rounded=0;orthogonalLoop=1;jettySize=auto;html=1;" parent="1" source="d35V8mpCLJeYDRfa0QBV-18" target="d35V8mpCLJeYDRfa0QBV-22" edge="1">
          <mxGeometry relative="1" as="geometry" />
        </mxCell>
        <mxCell id="d35V8mpCLJeYDRfa0QBV-18" value="&lt;font style=&quot;font-size: 16px;&quot;&gt;Merit List Preparation.&lt;/font&gt;" style="rhombus;whiteSpace=wrap;html=1;" parent="1" vertex="1">
          <mxGeometry x="263.75" y="630" width="212.5" height="140" as="geometry" />
        </mxCell>
        <mxCell id="d35V8mpCLJeYDRfa0QBV-20" value="&lt;font style=&quot;font-size: 16px;&quot;&gt;Not Selected&lt;/font&gt;" style="rounded=1;whiteSpace=wrap;html=1;" parent="1" vertex="1">
          <mxGeometry x="580" y="670" width="180" height="60" as="geometry" />
        </mxCell>
        <mxCell id="d35V8mpCLJeYDRfa0QBV-30" value="" style="edgeStyle=orthogonalEdgeStyle;rounded=0;orthogonalLoop=1;jettySize=auto;html=1;" parent="1" source="d35V8mpCLJeYDRfa0QBV-22" target="d35V8mpCLJeYDRfa0QBV-24" edge="1">
          <mxGeometry relative="1" as="geometry" />
        </mxCell>
        <mxCell id="d35V8mpCLJeYDRfa0QBV-22" value="&lt;font style=&quot;font-size: 16px;&quot;&gt;Seat Allotment&lt;/font&gt;" style="rounded=1;whiteSpace=wrap;html=1;" parent="1" vertex="1">
          <mxGeometry x="260" y="790" width="220" height="60" as="geometry" />
        </mxCell>
        <mxCell id="d35V8mpCLJeYDRfa0QBV-31" value="" style="edgeStyle=orthogonalEdgeStyle;rounded=0;orthogonalLoop=1;jettySize=auto;html=1;" parent="1" source="d35V8mpCLJeYDRfa0QBV-24" target="d35V8mpCLJeYDRfa0QBV-25" edge="1">
          <mxGeometry relative="1" as="geometry" />
        </mxCell>
        <mxCell id="d35V8mpCLJeYDRfa0QBV-24" value="&lt;font style=&quot;font-size: 16px;&quot;&gt;Offer Letter.&lt;/font&gt;" style="rounded=1;whiteSpace=wrap;html=1;" parent="1" vertex="1">
          <mxGeometry x="258.12" y="890" width="223.75" height="60" as="geometry" />
        </mxCell>
        <mxCell id="d35V8mpCLJeYDRfa0QBV-32" value="" style="edgeStyle=orthogonalEdgeStyle;rounded=0;orthogonalLoop=1;jettySize=auto;html=1;" parent="1" source="d35V8mpCLJeYDRfa0QBV-25" target="d35V8mpCLJeYDRfa0QBV-26" edge="1">
          <mxGeometry relative="1" as="geometry" />
        </mxCell>
        <mxCell id="d35V8mpCLJeYDRfa0QBV-25" value="&lt;font style=&quot;font-size: 16px;&quot;&gt;Acceptance Letter.&lt;/font&gt;" style="rounded=1;whiteSpace=wrap;html=1;" parent="1" vertex="1">
          <mxGeometry x="260" y="990" width="220" height="60" as="geometry" />
        </mxCell>
        <mxCell id="d35V8mpCLJeYDRfa0QBV-33" value="" style="edgeStyle=orthogonalEdgeStyle;rounded=0;orthogonalLoop=1;jettySize=auto;html=1;" parent="1" source="d35V8mpCLJeYDRfa0QBV-26" target="d35V8mpCLJeYDRfa0QBV-27" edge="1">
          <mxGeometry relative="1" as="geometry" />
        </mxCell>
        <mxCell id="d35V8mpCLJeYDRfa0QBV-26" value="&lt;font style=&quot;font-size: 16px;&quot;&gt;Pay Admission Fee&lt;/font&gt;" style="rounded=1;whiteSpace=wrap;html=1;" parent="1" vertex="1">
          <mxGeometry x="258.12" y="1080" width="223.75" height="60" as="geometry" />
        </mxCell>
        <mxCell id="d35V8mpCLJeYDRfa0QBV-34" value="" style="edgeStyle=orthogonalEdgeStyle;rounded=0;orthogonalLoop=1;jettySize=auto;html=1;" parent="1" source="d35V8mpCLJeYDRfa0QBV-27" target="d35V8mpCLJeYDRfa0QBV-28" edge="1">
          <mxGeometry relative="1" as="geometry" />
        </mxCell>
        <mxCell id="d35V8mpCLJeYDRfa0QBV-27" value="&lt;font style=&quot;font-size: 16px;&quot;&gt;Documentation verification.&lt;/font&gt;" style="rounded=1;whiteSpace=wrap;html=1;" parent="1" vertex="1">
          <mxGeometry x="260" y="1180" width="220" height="60" as="geometry" />
        </mxCell>
        <mxCell id="d35V8mpCLJeYDRfa0QBV-35" value="" style="edgeStyle=orthogonalEdgeStyle;rounded=0;orthogonalLoop=1;jettySize=auto;html=1;" parent="1" source="d35V8mpCLJeYDRfa0QBV-28" target="d35V8mpCLJeYDRfa0QBV-29" edge="1">
          <mxGeometry relative="1" as="geometry" />
        </mxCell>
        <mxCell id="d35V8mpCLJeYDRfa0QBV-28" value="&lt;font style=&quot;font-size: 16px;&quot;&gt;Final Admission.&lt;/font&gt;" style="rounded=1;whiteSpace=wrap;html=1;" parent="1" vertex="1">
          <mxGeometry x="260" y="1280" width="220" height="60" as="geometry" />
        </mxCell>
        <mxCell id="d35V8mpCLJeYDRfa0QBV-29" value="&lt;font style=&quot;font-size: 16px;&quot;&gt;END&lt;/font&gt;" style="ellipse;whiteSpace=wrap;html=1;" parent="1" vertex="1">
          <mxGeometry x="310" y="1390" width="120" height="70" as="geometry" />
        </mxCell>
      </root>
    </mxGraphModel>
  </diagram>
</mxfile>
